<svg width="167" height="38" viewBox="0 0 167 38" fill="none" xmlns="http://www.w3.org/2000/svg">
<path d="M74.04 30C73.8053 30 73.6133 29.9253 73.464 29.776C73.3147 29.6267 73.24 29.4347 73.24 29.2V8.4C73.24 8.16533 73.3147 7.97333 73.464 7.824C73.6133 7.67467 73.8053 7.6 74.04 7.6H83.8C85.6347 7.6 87.1387 7.856 88.312 8.368C89.4853 8.88 90.3493 9.616 90.904 10.576C91.48 11.5147 91.768 12.6347 91.768 13.936C91.768 14.704 91.6187 15.3867 91.32 15.984C91.0427 16.56 90.6907 17.04 90.264 17.424C89.8587 17.808 89.4747 18.0853 89.112 18.256C89.9227 18.64 90.6373 19.2693 91.256 20.144C91.896 21.0187 92.216 22.0427 92.216 23.216C92.216 24.624 91.896 25.84 91.256 26.864C90.6373 27.8667 89.72 28.6453 88.504 29.2C87.3093 29.7333 85.8373 30 84.088 30H74.04ZM78.968 25.84H83.448C84.3653 25.84 85.0587 25.5733 85.528 25.04C85.9973 24.5067 86.232 23.8987 86.232 23.216C86.232 22.4693 85.9867 21.84 85.496 21.328C85.0267 20.816 84.344 20.56 83.448 20.56H78.968V25.84ZM78.968 16.496H83.16C84.0347 16.496 84.6853 16.272 85.112 15.824C85.56 15.376 85.784 14.8 85.784 14.096C85.784 13.4133 85.56 12.8587 85.112 12.432C84.6853 11.984 84.0347 11.76 83.16 11.76H78.968V16.496ZM96.2193 30C95.9846 30 95.7926 29.9253 95.6432 29.776C95.4939 29.6267 95.4193 29.4347 95.4193 29.2V8.08C95.4193 7.84533 95.4939 7.65333 95.6432 7.504C95.7926 7.35467 95.9846 7.28 96.2193 7.28H99.9953C100.23 7.28 100.422 7.35467 100.571 7.504C100.721 7.65333 100.795 7.84533 100.795 8.08V29.2C100.795 29.4347 100.721 29.6267 100.571 29.776C100.422 29.9253 100.23 30 99.9953 30H96.2193ZM112.448 30.32C110.656 30.32 109.141 30.032 107.904 29.456C106.688 28.88 105.749 28.0587 105.088 26.992C104.448 25.904 104.085 24.6133 104 23.12C103.978 22.6933 103.968 22.2133 103.968 21.68C103.968 21.1253 103.978 20.6453 104 20.24C104.085 18.7253 104.469 17.4347 105.152 16.368C105.834 15.3013 106.784 14.48 108 13.904C109.237 13.328 110.72 13.04 112.448 13.04C114.197 13.04 115.68 13.328 116.896 13.904C118.133 14.48 119.093 15.3013 119.776 16.368C120.458 17.4347 120.842 18.7253 120.928 20.24C120.949 20.6453 120.96 21.1253 120.96 21.68C120.96 22.2133 120.949 22.6933 120.928 23.12C120.842 24.6133 120.469 25.904 119.808 26.992C119.168 28.0587 118.229 28.88 116.992 29.456C115.776 30.032 114.261 30.32 112.448 30.32ZM112.448 26.416C113.408 26.416 114.101 26.128 114.528 25.552C114.976 24.976 115.232 24.112 115.296 22.96C115.317 22.64 115.328 22.2133 115.328 21.68C115.328 21.1467 115.317 20.72 115.296 20.4C115.232 19.2693 114.976 18.416 114.528 17.84C114.101 17.2427 113.408 16.944 112.448 16.944C111.509 16.944 110.816 17.2427 110.368 17.84C109.92 18.416 109.674 19.2693 109.632 20.4C109.61 20.72 109.6 21.1467 109.6 21.68C109.6 22.2133 109.61 22.64 109.632 22.96C109.674 24.112 109.92 24.976 110.368 25.552C110.816 26.128 111.509 26.416 112.448 26.416ZM132.267 37.04C130.624 37.04 129.259 36.8267 128.171 36.4C127.104 35.9733 126.251 35.4613 125.611 34.864C124.992 34.2667 124.544 33.6693 124.267 33.072C123.989 32.496 123.84 32.0373 123.819 31.696C123.797 31.4613 123.872 31.2693 124.043 31.12C124.213 30.9707 124.416 30.896 124.651 30.896H128.715C128.907 30.896 129.067 30.9387 129.195 31.024C129.344 31.1307 129.461 31.3013 129.547 31.536C129.653 31.7707 129.792 32.016 129.963 32.272C130.155 32.528 130.411 32.7307 130.731 32.88C131.072 33.0507 131.531 33.136 132.107 33.136C132.747 33.136 133.28 33.0293 133.707 32.816C134.133 32.624 134.453 32.2933 134.667 31.824C134.88 31.376 134.987 30.768 134.987 30V27.856C134.496 28.3893 133.867 28.8267 133.099 29.168C132.331 29.488 131.403 29.648 130.315 29.648C129.227 29.648 128.267 29.488 127.435 29.168C126.603 28.848 125.909 28.368 125.355 27.728C124.8 27.088 124.363 26.3093 124.043 25.392C123.744 24.4747 123.563 23.4187 123.499 22.224C123.477 21.6693 123.477 21.1147 123.499 20.56C123.563 19.408 123.744 18.3733 124.043 17.456C124.341 16.5387 124.768 15.7493 125.323 15.088C125.899 14.4267 126.603 13.9253 127.435 13.584C128.267 13.2213 129.227 13.04 130.315 13.04C131.467 13.04 132.448 13.264 133.259 13.712C134.091 14.1387 134.773 14.6827 135.307 15.344V14.16C135.307 13.9467 135.381 13.7653 135.531 13.616C135.68 13.4453 135.872 13.36 136.107 13.36H139.787C140.021 13.36 140.213 13.4453 140.363 13.616C140.533 13.7653 140.619 13.9467 140.619 14.16V29.552C140.619 31.1733 140.288 32.5387 139.627 33.648C138.965 34.7573 138.016 35.6 136.779 36.176C135.541 36.752 134.037 37.04 132.267 37.04ZM132.043 25.488C132.725 25.488 133.28 25.3387 133.707 25.04C134.133 24.7413 134.443 24.3573 134.635 23.888C134.848 23.4187 134.965 22.9173 134.987 22.384C135.008 22.1493 135.019 21.8187 135.019 21.392C135.019 20.9653 135.008 20.6453 134.987 20.432C134.965 19.8773 134.848 19.3653 134.635 18.896C134.443 18.4267 134.133 18.0533 133.707 17.776C133.28 17.4773 132.725 17.328 132.043 17.328C131.339 17.328 130.773 17.4773 130.347 17.776C129.941 18.0747 129.643 18.48 129.451 18.992C129.28 19.504 129.173 20.0693 129.131 20.688C129.109 21.1573 129.109 21.6373 129.131 22.128C129.173 22.7467 129.28 23.312 129.451 23.824C129.643 24.336 129.941 24.7413 130.347 25.04C130.773 25.3387 131.339 25.488 132.043 25.488ZM145.188 30C144.953 30 144.761 29.9253 144.612 29.776C144.463 29.6267 144.388 29.4347 144.388 29.2V14.16C144.388 13.9253 144.463 13.7333 144.612 13.584C144.761 13.4347 144.953 13.36 145.188 13.36H148.964C149.177 13.36 149.359 13.4347 149.508 13.584C149.679 13.7333 149.764 13.9253 149.764 14.16V29.2C149.764 29.4347 149.679 29.6267 149.508 29.776C149.359 29.9253 149.177 30 148.964 30H145.188ZM145.156 10.96C144.921 10.96 144.729 10.8853 144.58 10.736C144.431 10.5867 144.356 10.3947 144.356 10.16V7.312C144.356 7.07733 144.431 6.88533 144.58 6.736C144.729 6.56533 144.921 6.48 145.156 6.48H148.964C149.199 6.48 149.391 6.56533 149.54 6.736C149.711 6.88533 149.796 7.07733 149.796 7.312V10.16C149.796 10.3947 149.711 10.5867 149.54 10.736C149.391 10.8853 149.199 10.96 148.964 10.96H145.156ZM162.025 30C160.66 30 159.476 29.7867 158.473 29.36C157.492 28.912 156.734 28.2293 156.201 27.312C155.668 26.3733 155.401 25.168 155.401 23.696V17.552H152.905C152.67 17.552 152.468 17.4773 152.297 17.328C152.148 17.1787 152.073 16.9867 152.073 16.752V14.16C152.073 13.9253 152.148 13.7333 152.297 13.584C152.468 13.4347 152.67 13.36 152.905 13.36H155.401V8.08C155.401 7.84533 155.476 7.65333 155.625 7.504C155.796 7.35467 155.988 7.28 156.201 7.28H159.913C160.148 7.28 160.34 7.35467 160.489 7.504C160.638 7.65333 160.713 7.84533 160.713 8.08V13.36H164.713C164.948 13.36 165.14 13.4347 165.289 13.584C165.438 13.7333 165.513 13.9253 165.513 14.16V16.752C165.513 16.9867 165.438 17.1787 165.289 17.328C165.14 17.4773 164.948 17.552 164.713 17.552H160.713V23.248C160.713 23.9733 160.852 24.5493 161.129 24.976C161.406 25.4027 161.876 25.616 162.537 25.616H165.001C165.236 25.616 165.428 25.6907 165.577 25.84C165.726 25.9893 165.801 26.1813 165.801 26.416V29.2C165.801 29.4347 165.726 29.6267 165.577 29.776C165.428 29.9253 165.236 30 165.001 30H162.025Z" fill="#190F27"/>
<circle cx="17" cy="19" r="17" fill="#FF6464"/>
<rect x="43" y="2" width="19" height="34" fill="#FFB238"/>
</svg>
